<?xml version="1.0" encoding="UTF-8" standalone="no"?>
<!DOCTYPE svg PUBLIC "-//W3C//DTD SVG 1.1//EN" "http://www.w3.org/Graphics/SVG/1.1/DTD/svg11.dtd">
<!-- Created with Vectornator (http://vectornator.io/) -->
<svg height="100%" stroke-miterlimit="10" style="fill-rule:nonzero;clip-rule:evenodd;stroke-linecap:round;stroke-linejoin:round;" version="1.1" viewBox="0 0 2800 420" width="100%" xml:space="preserve" xmlns="http://www.w3.org/2000/svg" xmlns:xlink="http://www.w3.org/1999/xlink">
<defs>
<clipPath id="TextBounds">
<rect height="350" width="2728.49" x="35.7542" y="96"/>
</clipPath>
<filter color-interpolation-filters="sRGB" filterUnits="userSpaceOnUse" height="237.09" id="Filter" width="2711.61" x="35.3857" y="161.668">
<feDropShadow dx="-3.67321e-05" dy="10" flood-color="#000000" flood-opacity="0.333" in="SourceGraphic" result="Shadow" stdDeviation="5"/>
</filter>
<filter color-interpolation-filters="sRGB" filterUnits="userSpaceOnUse" height="139.237" id="Filter_2" width="156.111" x="421.789" y="29.2388">
<feDropShadow dx="-3.67321e-05" dy="10" flood-color="#000000" flood-opacity="0.333" in="SourceGraphic" result="Shadow" stdDeviation="5"/>
</filter>
<filter color-interpolation-filters="sRGB" filterUnits="userSpaceOnUse" height="136.597" id="Filter_3" width="107.608" x="421.638" y="28.879">
<feDropShadow dx="-3.67321e-05" dy="10" flood-color="#000000" flood-opacity="0.333" in="SourceGraphic" result="Shadow" stdDeviation="5"/>
</filter>
</defs>
<g id="Layer-1">
<g fill="#3a2306" filter="url(#Filter)" stroke="none">
<path clip-path="url(#TextBounds)" d="M103.833 377L136.353 377L136.353 192.283L194.8 192.283L194.8 163.426L45.3857 163.426L45.3857 192.283L103.833 192.283L103.833 377Z"/>
<path clip-path="url(#TextBounds)" d="M344.546 377L376.919 377L376.919 163.426L344.546 163.426L344.546 254.979L260.024 254.979L260.024 163.426L227.651 163.426L227.651 377L260.024 377L260.024 283.689L344.546 283.689L344.546 377Z"/>
<path clip-path="url(#TextBounds)" d="M432.036 377L568.413 377L568.413 346.385L464.409 346.385L464.409 283.689L553.179 283.689L553.179 254.979L464.409 254.979L464.409 194.041L568.413 194.041L568.413 163.426L432.036 163.426L432.036 377Z"/>
<path clip-path="url(#TextBounds)" d="M608.882 377L641.255 377L641.255 243.846L641.841 243.846L686.519 346.385L713.472 346.385L758.149 243.846L758.882 243.846L758.882 377L791.255 377L791.255 163.426L760.64 163.426L700.581 302.586L639.351 163.426L608.882 163.426L608.882 377Z"/>
<path clip-path="url(#TextBounds)" d="M846.226 377L878.599 377L878.599 243.846L879.185 243.846L923.862 346.385L950.815 346.385L995.493 243.846L996.226 243.846L996.226 377L1028.6 377L1028.6 163.426L997.983 163.426L937.925 302.586L876.694 163.426L846.226 163.426L846.226 377Z"/>
<path clip-path="url(#TextBounds)" d="M1076.25 270.213C1076.25 294.627 1076.98 311.131 1078.44 319.725C1079.22 324.314 1080.2 328.123 1081.37 331.15C1082.64 334.08 1084.06 337.156 1085.62 340.379C1090.8 350.242 1099.1 358.934 1110.52 366.453C1121.75 374.266 1135.77 378.367 1152.56 378.758C1169.56 378.367 1183.72 374.266 1195.04 366.453C1206.27 358.934 1214.38 350.242 1219.36 340.379C1222.97 335.203 1225.46 328.318 1226.83 319.725C1228.1 311.131 1228.74 294.627 1228.74 270.213C1228.74 245.408 1228.1 228.807 1226.83 220.408C1225.46 212.01 1222.97 205.223 1219.36 200.047C1214.38 190.184 1206.27 181.395 1195.04 173.68C1183.72 165.867 1169.56 161.863 1152.56 161.668C1135.77 161.863 1121.75 165.867 1110.52 173.68C1099.1 181.395 1090.8 190.184 1085.62 200.047C1082.4 205.223 1080 212.01 1078.44 220.408C1076.98 228.807 1076.25 245.408 1076.25 270.213ZM1108.76 270.213C1108.76 249.217 1109.55 234.91 1111.11 227.293C1112.48 220.066 1115.26 214.158 1119.46 209.568C1122.88 205.174 1127.37 201.512 1132.93 198.582C1138.4 195.75 1144.95 194.236 1152.56 194.041C1160.28 194.236 1166.97 195.75 1172.63 198.582C1178 201.512 1182.3 205.174 1185.52 209.568C1189.72 214.158 1192.6 220.066 1194.17 227.293C1195.63 234.91 1196.36 249.217 1196.36 270.213C1196.36 291.209 1195.63 305.418 1194.17 312.84C1192.6 320.262 1189.72 326.268 1185.52 330.857C1182.3 335.252 1178 338.816 1172.63 341.551C1166.97 344.773 1160.28 346.385 1152.56 346.385C1144.95 346.385 1138.4 344.773 1132.93 341.551C1127.37 338.816 1122.88 335.252 1119.46 330.857C1115.26 326.268 1112.48 320.262 1111.11 312.84C1109.55 305.418 1108.76 291.209 1108.76 270.213Z"/>
<path clip-path="url(#TextBounds)" d="M1307.29 377L1339.81 377L1339.81 192.283L1398.26 192.283L1398.26 163.426L1248.84 163.426L1248.84 192.283L1307.29 192.283L1307.29 377Z"/>
<path clip-path="url(#TextBounds)" d="M1540.83 317.234C1531.84 336.668 1518.27 346.385 1500.1 346.385C1492.49 346.385 1485.94 344.773 1480.47 341.551C1474.91 338.816 1470.42 335.252 1467 330.857C1462.8 326.268 1460.01 320.262 1458.65 312.84C1457.08 305.418 1456.3 291.209 1456.3 270.213C1456.3 249.217 1457.08 234.91 1458.65 227.293C1460.01 220.066 1462.8 214.158 1467 209.568C1470.42 205.174 1474.91 201.512 1480.47 198.582C1485.94 195.75 1492.49 194.236 1500.1 194.041C1510.45 194.236 1519.24 197.215 1526.47 202.977C1533.4 209.031 1538.19 216.355 1540.83 224.949L1575.1 224.949C1571.68 207.078 1563.48 192.088 1550.49 179.979C1537.5 167.967 1520.71 161.863 1500.1 161.668C1483.31 161.863 1469.29 165.867 1458.06 173.68C1446.64 181.395 1438.33 190.184 1433.16 200.047C1429.94 205.223 1427.54 212.01 1425.98 220.408C1424.52 228.807 1423.78 245.408 1423.78 270.213C1423.78 294.627 1424.52 311.131 1425.98 319.725C1426.76 324.314 1427.74 328.123 1428.91 331.15C1430.18 334.08 1431.6 337.156 1433.16 340.379C1438.33 350.242 1446.64 358.934 1458.06 366.453C1469.29 374.266 1483.31 378.367 1500.1 378.758C1518.66 378.758 1534.72 373.484 1548.3 362.938C1561.48 352.293 1570.42 337.059 1575.1 317.234L1540.83 317.234Z"/>
<path clip-path="url(#TextBounds)" d="M1600.63 270.213C1600.63 294.627 1601.36 311.131 1602.83 319.725C1603.61 324.314 1604.58 328.123 1605.76 331.15C1607.03 334.08 1608.44 337.156 1610 340.379C1615.18 350.242 1623.48 358.934 1634.91 366.453C1646.14 374.266 1660.15 378.367 1676.95 378.758C1693.94 378.367 1708.1 374.266 1719.43 366.453C1730.66 358.934 1738.76 350.242 1743.75 340.379C1747.36 335.203 1749.85 328.318 1751.22 319.725C1752.49 311.131 1753.12 294.627 1753.12 270.213C1753.12 245.408 1752.49 228.807 1751.22 220.408C1749.85 212.01 1747.36 205.223 1743.75 200.047C1738.76 190.184 1730.66 181.395 1719.43 173.68C1708.1 165.867 1693.94 161.863 1676.95 161.668C1660.15 161.863 1646.14 165.867 1634.91 173.68C1623.48 181.395 1615.18 190.184 1610 200.047C1606.78 205.223 1604.39 212.01 1602.83 220.408C1601.36 228.807 1600.63 245.408 1600.63 270.213ZM1633.15 270.213C1633.15 249.217 1633.93 234.91 1635.49 227.293C1636.86 220.066 1639.64 214.158 1643.84 209.568C1647.26 205.174 1651.75 201.512 1657.32 198.582C1662.79 195.75 1669.33 194.236 1676.95 194.041C1684.66 194.236 1691.35 195.75 1697.02 198.582C1702.39 201.512 1706.68 205.174 1709.91 209.568C1714.11 214.158 1716.99 220.066 1718.55 227.293C1720.01 234.91 1720.75 249.217 1720.75 270.213C1720.75 291.209 1720.01 305.418 1718.55 312.84C1716.99 320.262 1714.11 326.268 1709.91 330.857C1706.68 335.252 1702.39 338.816 1697.02 341.551C1691.35 344.773 1684.66 346.385 1676.95 346.385C1669.33 346.385 1662.79 344.773 1657.32 341.551C1651.75 338.816 1647.26 335.252 1643.84 330.857C1639.64 326.268 1636.86 320.262 1635.49 312.84C1633.93 305.418 1633.15 291.209 1633.15 270.213Z"/>
<path clip-path="url(#TextBounds)" d="M1910.63 317.234C1901.65 336.668 1888.07 346.385 1869.91 346.385C1862.29 346.385 1855.75 344.773 1850.28 341.551C1844.71 338.816 1840.22 335.252 1836.8 330.857C1832.6 326.268 1829.82 320.262 1828.45 312.84C1826.89 305.418 1826.11 291.209 1826.11 270.213C1826.11 249.217 1826.89 234.91 1828.45 227.293C1829.82 220.066 1832.6 214.158 1836.8 209.568C1840.22 205.174 1844.71 201.512 1850.28 198.582C1855.75 195.75 1862.29 194.236 1869.91 194.041C1880.26 194.236 1889.05 197.215 1896.27 202.977C1903.21 209.031 1907.99 216.355 1910.63 224.949L1944.91 224.949C1941.49 207.078 1933.29 192.088 1920.3 179.979C1907.31 167.967 1890.51 161.863 1869.91 161.668C1853.11 161.863 1839.1 165.867 1827.87 173.68C1816.44 181.395 1808.14 190.184 1802.96 200.047C1799.74 205.223 1797.35 212.01 1795.79 220.408C1794.32 228.807 1793.59 245.408 1793.59 270.213C1793.59 294.627 1794.32 311.131 1795.79 319.725C1796.57 324.314 1797.54 328.123 1798.72 331.15C1799.99 334.08 1801.4 337.156 1802.96 340.379C1808.14 350.242 1816.44 358.934 1827.87 366.453C1839.1 374.266 1853.11 378.367 1869.91 378.758C1888.46 378.758 1904.53 373.484 1918.1 362.938C1931.28 352.293 1940.22 337.059 1944.91 317.234L1910.63 317.234Z"/>
<path clip-path="url(#TextBounds)" d="M1975.85 377L2006.47 377L2006.47 346.385L1975.85 346.385L1975.85 377Z"/>
<path clip-path="url(#TextBounds)" d="M2169.4 317.234C2160.42 336.668 2146.84 346.385 2128.68 346.385C2121.06 346.385 2114.52 344.773 2109.05 341.551C2103.48 338.816 2098.99 335.252 2095.57 330.857C2091.37 326.268 2088.59 320.262 2087.22 312.84C2085.66 305.418 2084.88 291.209 2084.88 270.213C2084.88 249.217 2085.66 234.91 2087.22 227.293C2088.59 220.066 2091.37 214.158 2095.57 209.568C2098.99 205.174 2103.48 201.512 2109.05 198.582C2114.52 195.75 2121.06 194.236 2128.68 194.041C2139.03 194.236 2147.82 197.215 2155.04 202.977C2161.98 209.031 2166.76 216.355 2169.4 224.949L2203.68 224.949C2200.26 207.078 2192.06 192.088 2179.07 179.979C2166.08 167.967 2149.28 161.863 2128.68 161.668C2111.88 161.863 2097.87 165.867 2086.64 173.68C2075.21 181.395 2066.91 190.184 2061.73 200.047C2058.51 205.223 2056.12 212.01 2054.56 220.408C2053.09 228.807 2052.36 245.408 2052.36 270.213C2052.36 294.627 2053.09 311.131 2054.56 319.725C2055.34 324.314 2056.31 328.123 2057.49 331.15C2058.75 334.08 2060.17 337.156 2061.73 340.379C2066.91 350.242 2075.21 358.934 2086.64 366.453C2097.87 374.266 2111.88 378.367 2128.68 378.758C2147.23 378.758 2163.3 373.484 2176.87 362.938C2190.05 352.293 2198.99 337.059 2203.68 317.234L2169.4 317.234Z"/>
<path clip-path="url(#TextBounds)" d="M2274.32 300.535L2305.23 207.225L2305.82 207.225L2336.72 300.535L2274.32 300.535ZM2362.5 377L2396.64 377L2319 163.426L2291.9 163.426L2214.26 377L2248.54 377L2264.95 329.246L2345.95 329.246L2362.5 377Z"/>
<path clip-path="url(#TextBounds)" d="M2429.49 377L2461.86 377L2461.86 285.74L2550.63 285.74L2550.63 257.029L2461.86 257.029L2461.86 194.041L2565.86 194.041L2565.86 163.426L2429.49 163.426L2429.49 377Z"/>
<path clip-path="url(#TextBounds)" d="M2600.62 377L2737 377L2737 346.385L2632.99 346.385L2632.99 283.689L2721.76 283.689L2721.76 254.979L2632.99 254.979L2632.99 194.041L2737 194.041L2737 163.426L2600.62 163.426L2600.62 377Z"/>
</g>
<path d="M445.789 134.476L499.948 54.2857L553.9 134.476" fill="none" filter="url(#Filter_2)" stroke="#3a2306" stroke-linecap="butt" stroke-linejoin="miter" stroke-width="28"/>
<path d="M448.424 47.0406L445.638 42.879L505.246 131.476" fill="none" filter="url(#Filter_3)" stroke="#c6a88c" stroke-linecap="butt" stroke-linejoin="miter" stroke-width="28"/>
</g>
</svg>
